<svg xmlns="http://www.w3.org/2000/svg" xmlns:xlink="http://www.w3.org/1999/xlink" width="500" zoomAndPan="magnify" viewBox="0 0 375 374.999991" height="500" preserveAspectRatio="xMidYMid meet" version="1.0"><defs><clipPath id="f2b57a7088"><path d="M 107 111.042969 L 112 111.042969 L 112 118.542969 L 107 118.542969 Z M 107 111.042969 " clip-rule="nonzero"/></clipPath><clipPath id="8d128ccd8e"><path d="M 101 111.042969 L 106 111.042969 L 106 118.542969 L 101 118.542969 Z M 101 111.042969 " clip-rule="nonzero"/></clipPath><clipPath id="5cf4dea851"><path d="M 101 114 L 106 114 L 106 118.542969 L 101 118.542969 Z M 101 114 " clip-rule="nonzero"/></clipPath><clipPath id="5ddddae4df"><path d="M 99.386719 113 L 103 113 L 103 117 L 99.386719 117 Z M 99.386719 113 " clip-rule="nonzero"/></clipPath><clipPath id="5160958e9b"><path d="M 99.386719 115 L 103 115 L 103 117 L 99.386719 117 Z M 99.386719 115 " clip-rule="nonzero"/></clipPath><clipPath id="17f8456288"><path d="M 105 111.042969 L 107 111.042969 L 107 118.542969 L 105 118.542969 Z M 105 111.042969 " clip-rule="nonzero"/></clipPath><clipPath id="d8e62a659d"><path d="M 99.386719 113 L 100 113 L 100 116 L 99.386719 116 Z M 99.386719 113 " clip-rule="nonzero"/></clipPath><clipPath id="a43f9846e4"><path d="M 13.359375 0 L 361.359375 0 L 361.359375 375 L 13.359375 375 Z M 13.359375 0 " clip-rule="nonzero"/></clipPath></defs><g clip-path="url(#f2b57a7088)"><path fill="#dddde0" d="M 110.074219 112.351562 C 110.480469 112.71875 110.792969 113.230469 110.960938 113.648438 C 111.289062 114.472656 111.347656 115.425781 111.042969 116.28125 C 110.84375 116.832031 110.675781 117.121094 110.246094 117.636719 L 110.773438 118.15625 C 111.855469 117.15625 112.132812 115.449219 111.890625 114.160156 C 111.847656 113.917969 111.757812 113.617188 111.648438 113.363281 C 111.398438 112.777344 111.113281 112.324219 110.589844 111.804688 Z M 107.898438 113.925781 C 108.578125 114.621094 108.519531 115.703125 107.96875 116.191406 L 108.5 116.722656 C 109.347656 115.945312 109.390625 114.292969 108.402344 113.375 Z M 108.988281 113.140625 C 110.042969 114.148438 110.101562 115.75 109.105469 116.925781 L 109.632812 117.441406 C 110.234375 116.957031 110.585938 115.769531 110.558594 114.988281 C 110.527344 114.1875 110.171875 113.132812 109.488281 112.589844 Z M 108.988281 113.140625 " fill-opacity="1" fill-rule="evenodd"/></g><g clip-path="url(#8d128ccd8e)"><path fill="#fad55c" d="M 105.402344 111.476562 C 105.550781 111.328125 105.820312 111.398438 105.820312 111.59375 L 105.820312 117.988281 C 105.820312 118.183594 105.550781 118.253906 105.402344 118.105469 C 103.644531 116.394531 102.28125 115.941406 101.300781 115.972656 L 101.300781 113.609375 C 102.28125 113.640625 103.644531 113.1875 105.402344 111.476562 Z M 105.402344 111.476562 " fill-opacity="1" fill-rule="evenodd"/></g><g clip-path="url(#5cf4dea851)"><path fill="#e3c04d" d="M 105.820312 117.792969 L 105.820312 117.988281 C 105.820312 118.183594 105.550781 118.253906 105.402344 118.105469 C 103.644531 116.394531 102.28125 115.941406 101.300781 115.972656 L 101.300781 114.792969 L 101.304688 114.792969 L 101.304688 115.757812 C 102.28125 115.726562 103.644531 116.183594 105.402344 117.890625 C 105.546875 118.035156 105.808594 117.976562 105.820312 117.792969 Z M 105.820312 117.792969 " fill-opacity="1" fill-rule="evenodd"/></g><g clip-path="url(#5ddddae4df)"><path fill="#ededf0" d="M 100.128906 113.5 L 102.140625 113.5 L 102.140625 116.082031 L 100.128906 116.082031 C 99.871094 116.082031 99.660156 115.867188 99.660156 115.605469 L 99.660156 113.976562 C 99.660156 113.714844 99.871094 113.5 100.128906 113.5 Z M 100.128906 113.5 " fill-opacity="1" fill-rule="evenodd"/></g><g clip-path="url(#5160958e9b)"><path fill="#dddde0" d="M 102.140625 115.855469 L 102.140625 116.082031 L 100.128906 116.082031 C 99.871094 116.082031 99.660156 115.867188 99.660156 115.605469 L 99.660156 115.378906 C 99.660156 115.640625 99.871094 115.855469 100.128906 115.855469 Z M 102.140625 115.855469 " fill-opacity="1" fill-rule="evenodd"/></g><g clip-path="url(#17f8456288)"><path fill="#ededf0" d="M 105.789062 111.042969 C 106.027344 111.042969 106.21875 111.238281 106.21875 111.476562 L 106.21875 118.105469 C 106.21875 118.347656 106.027344 118.542969 105.789062 118.542969 C 105.554688 118.542969 105.363281 118.347656 105.363281 118.105469 L 105.363281 111.476562 C 105.363281 111.238281 105.554688 111.042969 105.789062 111.042969 Z M 105.789062 111.042969 " fill-opacity="1" fill-rule="evenodd"/><path fill="#dddde0" d="M 105.789062 111.042969 C 106.027344 111.042969 106.21875 111.238281 106.21875 111.476562 L 106.21875 118.109375 C 106.21875 118.347656 106.027344 118.542969 105.789062 118.542969 Z M 105.789062 111.042969 " fill-opacity="1" fill-rule="evenodd"/></g><path fill="#fad55c" d="M 106.21875 113.496094 C 106.921875 113.496094 107.492188 114.078125 107.492188 114.792969 C 107.492188 115.507812 106.921875 116.085938 106.21875 116.085938 Z M 106.21875 113.496094 " fill-opacity="1" fill-rule="evenodd"/><g clip-path="url(#d8e62a659d)"><path fill="#fad55c" d="M 99.667969 115.691406 C 99.511719 115.6875 99.386719 115.558594 99.386719 115.402344 L 99.386719 114.179688 C 99.386719 114.023438 99.511719 113.894531 99.667969 113.890625 C 99.660156 113.917969 99.660156 113.949219 99.660156 113.976562 L 99.660156 115.605469 C 99.660156 115.632812 99.660156 115.664062 99.667969 115.691406 Z M 99.667969 115.691406 " fill-opacity="1" fill-rule="evenodd"/></g><g clip-path="url(#a43f9846e4)"><path fill="#757575" d="M 187.5 0 C 186.621094 0 185.75 0.0859375 184.886719 0.257812 C 184.023438 0.429688 183.1875 0.683594 182.375 1.019531 C 181.5625 1.355469 180.789062 1.769531 180.058594 2.257812 C 179.328125 2.746094 178.652344 3.300781 178.03125 3.921875 C 177.40625 4.542969 176.851562 5.222656 176.363281 5.953125 C 175.875 6.683594 175.464844 7.457031 175.125 8.269531 C 174.789062 9.082031 174.535156 9.917969 174.363281 10.78125 C 174.191406 11.640625 174.105469 12.511719 174.105469 13.394531 L 174.105469 361.605469 C 174.105469 362.488281 174.191406 363.355469 174.363281 364.21875 C 174.535156 365.082031 174.789062 365.917969 175.125 366.730469 C 175.464844 367.542969 175.875 368.316406 176.363281 369.046875 C 176.851562 369.777344 177.40625 370.457031 178.03125 371.078125 C 178.652344 371.699219 179.328125 372.253906 180.058594 372.742188 C 180.789062 373.230469 181.5625 373.644531 182.375 373.980469 C 183.1875 374.316406 184.023438 374.570312 184.886719 374.742188 C 185.75 374.914062 186.621094 375 187.5 375 C 188.378906 375 189.25 374.914062 190.113281 374.742188 C 190.976562 374.570312 191.8125 374.316406 192.625 373.980469 C 193.4375 373.644531 194.210938 373.230469 194.941406 372.742188 C 195.671875 372.253906 196.347656 371.699219 196.96875 371.078125 C 197.59375 370.457031 198.148438 369.777344 198.636719 369.046875 C 199.125 368.316406 199.535156 367.542969 199.875 366.730469 C 200.210938 365.917969 200.464844 365.082031 200.636719 364.21875 C 200.808594 363.355469 200.894531 362.488281 200.894531 361.605469 L 200.894531 13.394531 C 200.894531 12.511719 200.808594 11.640625 200.636719 10.78125 C 200.464844 9.917969 200.210938 9.082031 199.875 8.269531 C 199.535156 7.457031 199.125 6.683594 198.636719 5.953125 C 198.148438 5.222656 197.59375 4.542969 196.96875 3.921875 C 196.347656 3.300781 195.671875 2.746094 194.941406 2.257812 C 194.210938 1.769531 193.4375 1.355469 192.625 1.019531 C 191.8125 0.683594 190.976562 0.429688 190.113281 0.257812 C 189.25 0.0859375 188.378906 0 187.5 0 Z M 267.855469 80.355469 C 266.976562 80.355469 266.105469 80.441406 265.246094 80.613281 C 264.382812 80.785156 263.542969 81.039062 262.730469 81.375 C 261.917969 81.714844 261.148438 82.125 260.417969 82.613281 C 259.683594 83.101562 259.007812 83.65625 258.386719 84.28125 C 257.765625 84.902344 257.210938 85.578125 256.722656 86.308594 C 256.234375 87.039062 255.820312 87.8125 255.484375 88.625 C 255.148438 89.4375 254.894531 90.273438 254.722656 91.136719 C 254.550781 92 254.464844 92.871094 254.464844 93.75 L 254.464844 281.25 C 254.464844 282.128906 254.550781 283 254.722656 283.863281 C 254.894531 284.726562 255.148438 285.5625 255.484375 286.375 C 255.820312 287.1875 256.234375 287.960938 256.722656 288.691406 C 257.210938 289.421875 257.765625 290.097656 258.386719 290.71875 C 259.007812 291.34375 259.683594 291.898438 260.417969 292.386719 C 261.148438 292.875 261.917969 293.285156 262.730469 293.625 C 263.542969 293.960938 264.382812 294.214844 265.246094 294.386719 C 266.105469 294.558594 266.976562 294.644531 267.855469 294.644531 C 268.738281 294.644531 269.609375 294.558594 270.46875 294.386719 C 271.332031 294.214844 272.167969 293.960938 272.980469 293.625 C 273.792969 293.285156 274.566406 292.875 275.296875 292.386719 C 276.027344 291.898438 276.707031 291.34375 277.328125 290.71875 C 277.949219 290.097656 278.503906 289.421875 278.992188 288.691406 C 279.480469 287.960938 279.894531 287.1875 280.230469 286.375 C 280.566406 285.5625 280.820312 284.726562 280.992188 283.863281 C 281.164062 283 281.25 282.128906 281.25 281.25 L 281.25 93.75 C 281.25 92.871094 281.164062 92 280.992188 91.136719 C 280.820312 90.273438 280.566406 89.4375 280.230469 88.625 C 279.894531 87.8125 279.480469 87.039062 278.992188 86.308594 C 278.503906 85.578125 277.949219 84.902344 277.328125 84.28125 C 276.707031 83.65625 276.027344 83.101562 275.296875 82.613281 C 274.566406 82.125 273.792969 81.714844 272.980469 81.375 C 272.167969 81.039062 271.332031 80.785156 270.46875 80.613281 C 269.609375 80.441406 268.738281 80.355469 267.855469 80.355469 Z M 348.214844 133.929688 C 347.335938 133.929688 346.464844 134.015625 345.601562 134.1875 C 344.738281 134.359375 343.902344 134.613281 343.089844 134.949219 C 342.277344 135.285156 341.503906 135.695312 340.773438 136.1875 C 340.042969 136.675781 339.367188 137.230469 338.742188 137.851562 C 338.121094 138.472656 337.566406 139.148438 337.078125 139.878906 C 336.589844 140.613281 336.175781 141.382812 335.839844 142.195312 C 335.503906 143.007812 335.25 143.847656 335.078125 144.707031 C 334.90625 145.570312 334.820312 146.441406 334.820312 147.320312 L 334.820312 227.679688 C 334.820312 228.558594 334.90625 229.429688 335.078125 230.292969 C 335.25 231.152344 335.503906 231.992188 335.839844 232.804688 C 336.175781 233.617188 336.589844 234.386719 337.078125 235.121094 C 337.566406 235.851562 338.121094 236.527344 338.742188 237.148438 C 339.367188 237.769531 340.042969 238.324219 340.773438 238.8125 C 341.503906 239.304688 342.277344 239.714844 343.089844 240.050781 C 343.902344 240.386719 344.738281 240.640625 345.601562 240.8125 C 346.464844 240.984375 347.335938 241.070312 348.214844 241.070312 C 349.09375 241.070312 349.964844 240.984375 350.828125 240.8125 C 351.691406 240.640625 352.527344 240.386719 353.339844 240.050781 C 354.152344 239.714844 354.921875 239.304688 355.65625 238.8125 C 356.386719 238.324219 357.0625 237.769531 357.683594 237.148438 C 358.304688 236.527344 358.863281 235.851562 359.351562 235.121094 C 359.839844 234.386719 360.25 233.617188 360.585938 232.804688 C 360.925781 231.992188 361.179688 231.152344 361.351562 230.292969 C 361.519531 229.429688 361.605469 228.558594 361.605469 227.679688 L 361.605469 147.320312 C 361.605469 146.441406 361.519531 145.570312 361.351562 144.707031 C 361.179688 143.847656 360.925781 143.007812 360.585938 142.195312 C 360.25 141.382812 359.839844 140.613281 359.351562 139.878906 C 358.863281 139.148438 358.304688 138.472656 357.683594 137.851562 C 357.0625 137.230469 356.386719 136.675781 355.65625 136.1875 C 354.921875 135.695312 354.152344 135.285156 353.339844 134.949219 C 352.527344 134.613281 351.691406 134.359375 350.828125 134.1875 C 349.964844 134.015625 349.09375 133.929688 348.214844 133.929688 Z M 107.144531 80.355469 C 106.261719 80.355469 105.390625 80.441406 104.53125 80.613281 C 103.667969 80.785156 102.828125 81.039062 102.019531 81.375 C 101.207031 81.714844 100.433594 82.125 99.703125 82.613281 C 98.972656 83.101562 98.292969 83.65625 97.671875 84.28125 C 97.050781 84.902344 96.496094 85.578125 96.007812 86.308594 C 95.519531 87.039062 95.105469 87.8125 94.769531 88.625 C 94.433594 89.4375 94.179688 90.273438 94.007812 91.136719 C 93.835938 92 93.75 92.871094 93.75 93.75 L 93.75 281.25 C 93.75 282.128906 93.835938 283 94.007812 283.863281 C 94.179688 284.726562 94.433594 285.5625 94.769531 286.375 C 95.105469 287.1875 95.519531 287.960938 96.007812 288.691406 C 96.496094 289.421875 97.050781 290.097656 97.671875 290.71875 C 98.292969 291.34375 98.972656 291.898438 99.703125 292.386719 C 100.433594 292.875 101.207031 293.285156 102.019531 293.625 C 102.828125 293.960938 103.667969 294.214844 104.53125 294.386719 C 105.390625 294.558594 106.261719 294.644531 107.144531 294.644531 C 108.023438 294.644531 108.894531 294.558594 109.753906 294.386719 C 110.617188 294.214844 111.457031 293.960938 112.269531 293.625 C 113.082031 293.285156 113.851562 292.875 114.582031 292.386719 C 115.316406 291.898438 115.992188 291.34375 116.613281 290.71875 C 117.234375 290.097656 117.789062 289.421875 118.277344 288.691406 C 118.765625 287.960938 119.179688 287.1875 119.515625 286.375 C 119.851562 285.5625 120.105469 284.726562 120.277344 283.863281 C 120.449219 283 120.535156 282.128906 120.535156 281.25 L 120.535156 93.75 C 120.535156 92.871094 120.449219 92 120.277344 91.136719 C 120.105469 90.273438 119.851562 89.4375 119.515625 88.625 C 119.179688 87.8125 118.765625 87.039062 118.277344 86.308594 C 117.789062 85.578125 117.234375 84.902344 116.613281 84.28125 C 115.992188 83.65625 115.316406 83.101562 114.582031 82.613281 C 113.851562 82.125 113.082031 81.714844 112.269531 81.375 C 111.457031 81.039062 110.617188 80.785156 109.753906 80.613281 C 108.894531 80.441406 108.023438 80.355469 107.144531 80.355469 Z M 26.785156 133.929688 C 25.90625 133.929688 25.035156 134.015625 24.171875 134.1875 C 23.308594 134.359375 22.472656 134.613281 21.660156 134.949219 C 20.847656 135.285156 20.078125 135.695312 19.34375 136.1875 C 18.613281 136.675781 17.9375 137.230469 17.316406 137.851562 C 16.695312 138.472656 16.136719 139.148438 15.648438 139.878906 C 15.160156 140.613281 14.75 141.382812 14.414062 142.195312 C 14.074219 143.007812 13.820312 143.847656 13.648438 144.707031 C 13.480469 145.570312 13.394531 146.441406 13.394531 147.320312 L 13.394531 227.679688 C 13.394531 228.558594 13.480469 229.429688 13.648438 230.292969 C 13.820312 231.152344 14.074219 231.992188 14.414062 232.804688 C 14.75 233.617188 15.160156 234.386719 15.648438 235.121094 C 16.136719 235.851562 16.695312 236.527344 17.316406 237.148438 C 17.9375 237.769531 18.613281 238.324219 19.34375 238.8125 C 20.078125 239.304688 20.847656 239.714844 21.660156 240.050781 C 22.472656 240.386719 23.308594 240.640625 24.171875 240.8125 C 25.035156 240.984375 25.90625 241.070312 26.785156 241.070312 C 27.664062 241.070312 28.535156 240.984375 29.398438 240.8125 C 30.261719 240.640625 31.097656 240.386719 31.910156 240.050781 C 32.722656 239.714844 33.496094 239.304688 34.226562 238.8125 C 34.957031 238.324219 35.632812 237.769531 36.257812 237.148438 C 36.878906 236.527344 37.433594 235.851562 37.921875 235.121094 C 38.410156 234.386719 38.824219 233.617188 39.160156 232.804688 C 39.496094 231.992188 39.75 231.152344 39.921875 230.292969 C 40.09375 229.429688 40.179688 228.558594 40.179688 227.679688 L 40.179688 147.320312 C 40.179688 146.441406 40.09375 145.570312 39.921875 144.707031 C 39.75 143.847656 39.496094 143.007812 39.160156 142.195312 C 38.824219 141.382812 38.410156 140.613281 37.921875 139.878906 C 37.433594 139.148438 36.878906 138.472656 36.257812 137.851562 C 35.632812 137.230469 34.957031 136.675781 34.226562 136.1875 C 33.496094 135.695312 32.722656 135.285156 31.910156 134.949219 C 31.097656 134.613281 30.261719 134.359375 29.398438 134.1875 C 28.535156 134.015625 27.664062 133.929688 26.785156 133.929688 Z M 26.785156 133.929688 " fill-opacity="1" fill-rule="nonzero"/></g></svg>