<svg xmlns="http://www.w3.org/2000/svg" xmlns:xlink="http://www.w3.org/1999/xlink" width="500" zoomAndPan="magnify" viewBox="0 0 375 374.999991" height="500" preserveAspectRatio="xMidYMid meet" version="1.0"><defs><clipPath id="9ba7a401a2"><path d="M 121 114 L 125.898438 114 L 125.898438 121.410156 L 121 121.410156 Z M 121 114 " clip-rule="nonzero"/></clipPath><clipPath id="1085280c80"><path d="M 115 114 L 120 114 L 120 121.410156 L 115 121.410156 Z M 115 114 " clip-rule="nonzero"/></clipPath><clipPath id="6d6ad310d5"><path d="M 115 117 L 120 117 L 120 121.410156 L 115 121.410156 Z M 115 117 " clip-rule="nonzero"/></clipPath><clipPath id="c8448a17e0"><path d="M 113.148438 116 L 116 116 L 116 119 L 113.148438 119 Z M 113.148438 116 " clip-rule="nonzero"/></clipPath><clipPath id="91b6230e69"><path d="M 113.148438 118 L 116 118 L 116 119 L 113.148438 119 Z M 113.148438 118 " clip-rule="nonzero"/></clipPath><clipPath id="2b6e2e6cb4"><path d="M 119 113.910156 L 120 113.910156 L 120 121.410156 L 119 121.410156 Z M 119 113.910156 " clip-rule="nonzero"/></clipPath><clipPath id="65f6a785be"><path d="M 113.148438 116 L 114 116 L 114 119 L 113.148438 119 Z M 113.148438 116 " clip-rule="nonzero"/></clipPath><clipPath id="343ada4812"><path d="M 337 87 L 362.671875 87 L 362.671875 125 L 337 125 Z M 337 87 " clip-rule="nonzero"/></clipPath><clipPath id="3e7c07500f"><path d="M 12.421875 87 L 38 87 L 38 125 L 12.421875 125 Z M 12.421875 87 " clip-rule="nonzero"/></clipPath></defs><g clip-path="url(#9ba7a401a2)"><path fill="#dddde0" d="M 123.835938 115.21875 C 124.242188 115.585938 124.554688 116.097656 124.722656 116.515625 C 125.050781 117.339844 125.109375 118.292969 124.804688 119.148438 C 124.605469 119.699219 124.433594 119.988281 124.007812 120.503906 L 124.535156 121.023438 C 125.617188 120.023438 125.894531 118.316406 125.652344 117.027344 C 125.609375 116.785156 125.519531 116.484375 125.410156 116.230469 C 125.160156 115.640625 124.875 115.191406 124.351562 114.671875 Z M 121.660156 116.792969 C 122.335938 117.488281 122.28125 118.570312 121.730469 119.058594 L 122.261719 119.589844 C 123.109375 118.8125 123.152344 117.160156 122.164062 116.242188 Z M 122.75 116.007812 C 123.804688 117.015625 123.863281 118.613281 122.867188 119.792969 L 123.394531 120.308594 C 123.996094 119.824219 124.347656 118.636719 124.320312 117.855469 C 124.289062 117.054688 123.933594 116 123.25 115.457031 Z M 122.75 116.007812 " fill-opacity="1" fill-rule="evenodd"/></g><g clip-path="url(#1085280c80)"><path fill="#fad55c" d="M 119.164062 114.34375 C 119.3125 114.195312 119.582031 114.265625 119.582031 114.460938 L 119.582031 120.855469 C 119.582031 121.050781 119.3125 121.121094 119.164062 120.972656 C 117.40625 119.261719 116.042969 118.808594 115.0625 118.839844 L 115.0625 116.476562 C 116.042969 116.507812 117.40625 116.054688 119.164062 114.34375 Z M 119.164062 114.34375 " fill-opacity="1" fill-rule="evenodd"/></g><g clip-path="url(#6d6ad310d5)"><path fill="#e3c04d" d="M 119.582031 120.660156 L 119.582031 120.855469 C 119.582031 121.050781 119.3125 121.121094 119.164062 120.972656 C 117.40625 119.261719 116.042969 118.808594 115.0625 118.839844 L 115.0625 117.660156 L 115.066406 117.660156 L 115.066406 118.625 C 116.042969 118.59375 117.40625 119.050781 119.164062 120.757812 C 119.308594 120.902344 119.570312 120.84375 119.582031 120.660156 Z M 119.582031 120.660156 " fill-opacity="1" fill-rule="evenodd"/></g><g clip-path="url(#c8448a17e0)"><path fill="#ededf0" d="M 113.890625 116.367188 L 115.902344 116.367188 L 115.902344 118.949219 L 113.890625 118.949219 C 113.632812 118.949219 113.417969 118.734375 113.417969 118.472656 L 113.417969 116.84375 C 113.417969 116.582031 113.632812 116.367188 113.890625 116.367188 Z M 113.890625 116.367188 " fill-opacity="1" fill-rule="evenodd"/></g><g clip-path="url(#91b6230e69)"><path fill="#dddde0" d="M 115.902344 118.722656 L 115.902344 118.949219 L 113.890625 118.949219 C 113.632812 118.949219 113.417969 118.734375 113.417969 118.472656 L 113.417969 118.246094 C 113.417969 118.507812 113.632812 118.722656 113.890625 118.722656 Z M 115.902344 118.722656 " fill-opacity="1" fill-rule="evenodd"/></g><g clip-path="url(#2b6e2e6cb4)"><path fill="#ededf0" d="M 119.550781 113.910156 C 119.789062 113.910156 119.980469 114.101562 119.980469 114.339844 L 119.980469 120.972656 C 119.980469 121.214844 119.789062 121.410156 119.550781 121.410156 C 119.316406 121.410156 119.125 121.214844 119.125 120.972656 L 119.125 114.339844 C 119.125 114.101562 119.316406 113.910156 119.550781 113.910156 Z M 119.550781 113.910156 " fill-opacity="1" fill-rule="evenodd"/><path fill="#dddde0" d="M 119.550781 113.910156 C 119.789062 113.910156 119.980469 114.101562 119.980469 114.339844 L 119.980469 120.976562 C 119.980469 121.214844 119.789062 121.410156 119.550781 121.410156 Z M 119.550781 113.910156 " fill-opacity="1" fill-rule="evenodd"/></g><path fill="#fad55c" d="M 119.980469 116.363281 C 120.683594 116.363281 121.253906 116.945312 121.253906 117.660156 C 121.253906 118.371094 120.683594 118.953125 119.980469 118.953125 Z M 119.980469 116.363281 " fill-opacity="1" fill-rule="evenodd"/><g clip-path="url(#65f6a785be)"><path fill="#fad55c" d="M 113.429688 118.558594 C 113.273438 118.554688 113.148438 118.425781 113.148438 118.269531 L 113.148438 117.046875 C 113.148438 116.890625 113.273438 116.761719 113.429688 116.757812 C 113.421875 116.785156 113.417969 116.816406 113.417969 116.84375 L 113.417969 118.472656 C 113.417969 118.5 113.421875 118.53125 113.429688 118.558594 Z M 113.429688 118.558594 " fill-opacity="1" fill-rule="evenodd"/></g><path fill="#757575" d="M 187.5 237.5 C 188.726562 237.5 189.953125 237.46875 191.179688 237.40625 C 192.40625 237.34375 193.628906 237.253906 194.847656 237.132812 C 196.070312 237.011719 197.289062 236.859375 198.5 236.679688 C 199.714844 236.496094 200.921875 236.285156 202.125 236.046875 C 203.328125 235.804688 204.527344 235.535156 205.714844 235.238281 C 206.90625 234.9375 208.089844 234.609375 209.261719 234.253906 C 210.4375 233.898438 211.601562 233.511719 212.757812 233.097656 C 213.910156 232.683594 215.054688 232.242188 216.191406 231.769531 C 217.324219 231.300781 218.445312 230.804688 219.554688 230.277344 C 220.664062 229.753906 221.757812 229.199219 222.839844 228.621094 C 223.921875 228.042969 224.988281 227.4375 226.042969 226.808594 C 227.09375 226.175781 228.128906 225.519531 229.148438 224.835938 C 230.171875 224.15625 231.171875 223.449219 232.160156 222.71875 C 233.144531 221.984375 234.109375 221.230469 235.058594 220.453125 C 236.007812 219.675781 236.9375 218.871094 237.847656 218.046875 C 238.753906 217.226562 239.644531 216.378906 240.511719 215.511719 C 241.378906 214.644531 242.226562 213.753906 243.046875 212.847656 C 243.871094 211.9375 244.675781 211.007812 245.453125 210.058594 C 246.230469 209.109375 246.984375 208.144531 247.71875 207.160156 C 248.449219 206.171875 249.15625 205.171875 249.835938 204.148438 C 250.519531 203.128906 251.175781 202.09375 251.808594 201.042969 C 252.4375 199.988281 253.042969 198.921875 253.621094 197.839844 C 254.199219 196.757812 254.753906 195.664062 255.277344 194.554688 C 255.804688 193.445312 256.300781 192.324219 256.769531 191.191406 C 257.242188 190.054688 257.683594 188.910156 258.097656 187.757812 C 258.511719 186.601562 258.898438 185.4375 259.253906 184.261719 C 259.609375 183.089844 259.9375 181.90625 260.238281 180.714844 C 260.535156 179.527344 260.804688 178.328125 261.046875 177.125 C 261.285156 175.921875 261.496094 174.714844 261.679688 173.5 C 261.859375 172.289062 262.011719 171.070312 262.132812 169.847656 C 262.253906 168.628906 262.34375 167.40625 262.40625 166.179688 C 262.46875 164.953125 262.5 163.726562 262.5 162.5 L 262.5 75 C 262.5 73.773438 262.46875 72.546875 262.410156 71.320312 C 262.347656 70.09375 262.257812 68.871094 262.140625 67.648438 C 262.019531 66.425781 261.867188 65.210938 261.6875 63.996094 C 261.507812 62.78125 261.296875 61.570312 261.058594 60.367188 C 260.820312 59.164062 260.550781 57.96875 260.253906 56.777344 C 259.953125 55.585938 259.625 54.402344 259.269531 53.230469 C 258.914062 52.054688 258.527344 50.890625 258.117188 49.734375 C 257.703125 48.578125 257.261719 47.433594 256.789062 46.296875 C 256.320312 45.164062 255.824219 44.042969 255.300781 42.933594 C 254.773438 41.824219 254.222656 40.726562 253.644531 39.644531 C 253.066406 38.5625 252.460938 37.496094 251.828125 36.441406 C 251.199219 35.390625 250.542969 34.351562 249.859375 33.332031 C 249.179688 32.3125 248.472656 31.308594 247.742188 30.324219 C 247.007812 29.335938 246.253906 28.371094 245.476562 27.421875 C 244.695312 26.472656 243.894531 25.542969 243.070312 24.632812 C 242.246094 23.722656 241.402344 22.835938 240.53125 21.96875 C 239.664062 21.097656 238.777344 20.253906 237.867188 19.429688 C 236.957031 18.605469 236.027344 17.804688 235.078125 17.023438 C 234.128906 16.246094 233.164062 15.492188 232.175781 14.757812 C 231.191406 14.027344 230.1875 13.320312 229.167969 12.640625 C 228.148438 11.957031 227.109375 11.300781 226.058594 10.671875 C 225.003906 10.039062 223.9375 9.433594 222.855469 8.855469 C 221.773438 8.277344 220.675781 7.726562 219.566406 7.199219 C 218.457031 6.675781 217.335938 6.179688 216.203125 5.710938 C 215.066406 5.238281 213.921875 4.796875 212.765625 4.382812 C 211.609375 3.96875 210.445312 3.585938 209.269531 3.230469 C 208.097656 2.875 206.914062 2.546875 205.722656 2.246094 C 204.53125 1.949219 203.335938 1.679688 202.132812 1.441406 C 200.929688 1.203125 199.71875 0.992188 198.503906 0.8125 C 197.289062 0.632812 196.074219 0.480469 194.851562 0.359375 C 193.628906 0.242188 192.40625 0.152344 191.179688 0.0898438 C 189.953125 0.03125 188.726562 0 187.5 0 C 186.273438 0 185.046875 0.03125 183.820312 0.0898438 C 182.59375 0.152344 181.371094 0.242188 180.148438 0.359375 C 178.925781 0.480469 177.710938 0.632812 176.496094 0.8125 C 175.28125 0.992188 174.070312 1.203125 172.867188 1.441406 C 171.664062 1.679688 170.46875 1.949219 169.277344 2.246094 C 168.085938 2.546875 166.902344 2.875 165.730469 3.230469 C 164.554688 3.585938 163.390625 3.96875 162.234375 4.382812 C 161.078125 4.796875 159.933594 5.238281 158.796875 5.710938 C 157.664062 6.179688 156.542969 6.675781 155.433594 7.199219 C 154.324219 7.726562 153.226562 8.277344 152.144531 8.855469 C 151.0625 9.433594 149.996094 10.039062 148.941406 10.671875 C 147.890625 11.300781 146.851562 11.957031 145.832031 12.640625 C 144.8125 13.320312 143.808594 14.027344 142.824219 14.757812 C 141.835938 15.492188 140.871094 16.246094 139.921875 17.023438 C 138.972656 17.804688 138.042969 18.605469 137.132812 19.429688 C 136.222656 20.253906 135.335938 21.097656 134.46875 21.96875 C 133.597656 22.835938 132.753906 23.722656 131.929688 24.632812 C 131.105469 25.542969 130.304688 26.472656 129.523438 27.421875 C 128.746094 28.371094 127.992188 29.335938 127.257812 30.324219 C 126.527344 31.308594 125.820312 32.3125 125.140625 33.332031 C 124.457031 34.351562 123.800781 35.390625 123.171875 36.441406 C 122.539062 37.496094 121.933594 38.5625 121.355469 39.644531 C 120.777344 40.726562 120.226562 41.824219 119.699219 42.933594 C 119.175781 44.042969 118.679688 45.164062 118.210938 46.296875 C 117.738281 47.433594 117.296875 48.578125 116.882812 49.734375 C 116.46875 50.890625 116.085938 52.054688 115.730469 53.230469 C 115.375 54.402344 115.046875 55.585938 114.746094 56.777344 C 114.449219 57.96875 114.179688 59.164062 113.941406 60.367188 C 113.703125 61.570312 113.492188 62.78125 113.3125 63.996094 C 113.132812 65.210938 112.980469 66.425781 112.859375 67.648438 C 112.742188 68.871094 112.652344 70.09375 112.589844 71.320312 C 112.53125 72.546875 112.5 73.773438 112.5 75 L 112.5 162.5 C 112.5 163.726562 112.53125 164.953125 112.59375 166.179688 C 112.65625 167.40625 112.746094 168.628906 112.867188 169.847656 C 112.988281 171.070312 113.140625 172.289062 113.320312 173.5 C 113.503906 174.714844 113.714844 175.921875 113.953125 177.125 C 114.195312 178.328125 114.464844 179.527344 114.761719 180.714844 C 115.0625 181.90625 115.390625 183.089844 115.746094 184.261719 C 116.101562 185.4375 116.488281 186.601562 116.902344 187.757812 C 117.316406 188.910156 117.757812 190.054688 118.230469 191.191406 C 118.699219 192.324219 119.195312 193.445312 119.722656 194.554688 C 120.246094 195.664062 120.800781 196.757812 121.378906 197.839844 C 121.957031 198.921875 122.5625 199.988281 123.191406 201.042969 C 123.824219 202.09375 124.480469 203.128906 125.164062 204.148438 C 125.84375 205.171875 126.550781 206.171875 127.28125 207.160156 C 128.015625 208.144531 128.769531 209.109375 129.546875 210.058594 C 130.324219 211.007812 131.128906 211.9375 131.953125 212.847656 C 132.773438 213.753906 133.621094 214.644531 134.488281 215.511719 C 135.355469 216.378906 136.246094 217.226562 137.152344 218.046875 C 138.0625 218.871094 138.992188 219.675781 139.941406 220.453125 C 140.890625 221.230469 141.855469 221.984375 142.839844 222.71875 C 143.828125 223.449219 144.828125 224.15625 145.851562 224.835938 C 146.871094 225.519531 147.90625 226.175781 148.957031 226.808594 C 150.011719 227.4375 151.078125 228.042969 152.160156 228.621094 C 153.242188 229.199219 154.335938 229.753906 155.445312 230.277344 C 156.554688 230.804688 157.675781 231.300781 158.808594 231.769531 C 159.945312 232.242188 161.089844 232.683594 162.242188 233.097656 C 163.398438 233.511719 164.5625 233.898438 165.738281 234.253906 C 166.910156 234.609375 168.09375 234.9375 169.285156 235.238281 C 170.472656 235.535156 171.671875 235.804688 172.875 236.046875 C 174.078125 236.285156 175.285156 236.496094 176.5 236.679688 C 177.710938 236.859375 178.929688 237.011719 180.152344 237.132812 C 181.371094 237.253906 182.59375 237.34375 183.820312 237.40625 C 185.046875 237.46875 186.273438 237.5 187.5 237.5 Z M 137.5 75 C 137.5 73.363281 137.582031 71.730469 137.742188 70.097656 C 137.902344 68.46875 138.140625 66.851562 138.460938 65.246094 C 138.78125 63.640625 139.175781 62.054688 139.652344 60.484375 C 140.128906 58.917969 140.679688 57.378906 141.304688 55.867188 C 141.933594 54.351562 142.632812 52.875 143.402344 51.429688 C 144.175781 49.984375 145.015625 48.582031 145.925781 47.222656 C 146.835938 45.859375 147.8125 44.546875 148.847656 43.28125 C 149.886719 42.015625 150.988281 40.800781 152.144531 39.644531 C 153.300781 38.488281 154.515625 37.386719 155.78125 36.347656 C 157.046875 35.3125 158.359375 34.335938 159.722656 33.425781 C 161.082031 32.515625 162.484375 31.675781 163.929688 30.902344 C 165.375 30.132812 166.851562 29.433594 168.367188 28.804688 C 169.878906 28.179688 171.417969 27.628906 172.984375 27.152344 C 174.554688 26.675781 176.140625 26.28125 177.746094 25.960938 C 179.351562 25.640625 180.96875 25.402344 182.597656 25.242188 C 184.230469 25.082031 185.863281 25 187.5 25 C 189.136719 25 190.769531 25.082031 192.402344 25.242188 C 194.03125 25.402344 195.648438 25.640625 197.253906 25.960938 C 198.859375 26.28125 200.445312 26.675781 202.015625 27.152344 C 203.582031 27.628906 205.121094 28.179688 206.632812 28.804688 C 208.148438 29.433594 209.625 30.132812 211.070312 30.902344 C 212.515625 31.675781 213.917969 32.515625 215.277344 33.425781 C 216.640625 34.335938 217.953125 35.3125 219.21875 36.347656 C 220.484375 37.386719 221.699219 38.488281 222.855469 39.644531 C 224.011719 40.800781 225.113281 42.015625 226.152344 43.28125 C 227.1875 44.546875 228.164062 45.859375 229.074219 47.222656 C 229.984375 48.582031 230.824219 49.984375 231.597656 51.429688 C 232.367188 52.875 233.066406 54.351562 233.695312 55.867188 C 234.320312 57.378906 234.871094 58.917969 235.347656 60.484375 C 235.824219 62.054688 236.21875 63.640625 236.539062 65.246094 C 236.859375 66.851562 237.097656 68.46875 237.257812 70.097656 C 237.417969 71.730469 237.5 73.363281 237.5 75 L 237.5 162.5 C 237.5 164.136719 237.417969 165.769531 237.257812 167.402344 C 237.097656 169.03125 236.859375 170.648438 236.539062 172.253906 C 236.21875 173.859375 235.824219 175.445312 235.347656 177.015625 C 234.871094 178.582031 234.320312 180.121094 233.695312 181.632812 C 233.066406 183.148438 232.367188 184.625 231.597656 186.070312 C 230.824219 187.515625 229.984375 188.917969 229.074219 190.277344 C 228.164062 191.640625 227.1875 192.953125 226.152344 194.21875 C 225.113281 195.484375 224.011719 196.699219 222.855469 197.855469 C 221.699219 199.011719 220.484375 200.113281 219.21875 201.152344 C 217.953125 202.1875 216.640625 203.164062 215.277344 204.074219 C 213.917969 204.984375 212.515625 205.824219 211.070312 206.597656 C 209.625 207.367188 208.148438 208.066406 206.632812 208.695312 C 205.121094 209.320312 203.582031 209.871094 202.015625 210.347656 C 200.445312 210.824219 198.859375 211.21875 197.253906 211.539062 C 195.648438 211.859375 194.03125 212.097656 192.402344 212.257812 C 190.769531 212.417969 189.136719 212.5 187.5 212.5 C 185.863281 212.5 184.230469 212.417969 182.597656 212.257812 C 180.96875 212.097656 179.351562 211.859375 177.746094 211.539062 C 176.140625 211.21875 174.554688 210.824219 172.984375 210.347656 C 171.417969 209.871094 169.878906 209.320312 168.367188 208.695312 C 166.851562 208.066406 165.375 207.367188 163.929688 206.597656 C 162.484375 205.824219 161.082031 204.984375 159.722656 204.074219 C 158.359375 203.164062 157.046875 202.1875 155.78125 201.152344 C 154.515625 200.113281 153.300781 199.011719 152.144531 197.855469 C 150.988281 196.699219 149.886719 195.484375 148.847656 194.21875 C 147.8125 192.953125 146.835938 191.640625 145.925781 190.277344 C 145.015625 188.917969 144.175781 187.515625 143.402344 186.070312 C 142.632812 184.625 141.933594 183.148438 141.304688 181.632812 C 140.679688 180.121094 140.128906 178.582031 139.652344 177.015625 C 139.175781 175.445312 138.78125 173.859375 138.460938 172.253906 C 138.140625 170.648438 137.902344 169.03125 137.742188 167.402344 C 137.582031 165.769531 137.5 164.136719 137.5 162.5 Z M 137.5 75 " fill-opacity="1" fill-rule="nonzero"/><path fill="#757575" d="M 75 175.3125 C 74.195312 175.492188 73.421875 175.753906 72.667969 176.085938 C 71.917969 176.421875 71.203125 176.828125 70.53125 177.304688 C 69.859375 177.777344 69.242188 178.316406 68.675781 178.914062 C 68.109375 179.511719 67.609375 180.15625 67.171875 180.855469 C 66.734375 181.550781 66.367188 182.285156 66.074219 183.054688 C 65.78125 183.824219 65.566406 184.613281 65.429688 185.425781 C 65.292969 186.234375 65.238281 187.054688 65.261719 187.875 C 65.285156 188.699219 65.390625 189.511719 65.574219 190.3125 C 66.28125 193.488281 67.113281 196.632812 68.070312 199.742188 C 69.023438 202.851562 70.101562 205.921875 71.296875 208.949219 C 72.496094 211.972656 73.808594 214.949219 75.238281 217.871094 C 76.667969 220.792969 78.210938 223.65625 79.867188 226.457031 C 81.523438 229.257812 83.285156 231.992188 85.15625 234.652344 C 87.027344 237.316406 88.996094 239.902344 91.070312 242.410156 C 93.144531 244.917969 95.3125 247.339844 97.578125 249.679688 C 99.84375 252.015625 102.195312 254.261719 104.636719 256.414062 C 107.074219 258.566406 109.597656 260.617188 112.199219 262.570312 C 114.800781 264.527344 117.476562 266.375 120.222656 268.117188 C 122.96875 269.863281 125.78125 271.496094 128.65625 273.019531 C 131.535156 274.539062 134.464844 275.949219 137.453125 277.238281 C 140.4375 278.53125 143.46875 279.707031 146.550781 280.757812 C 149.628906 281.8125 152.742188 282.742188 155.894531 283.550781 C 159.046875 284.359375 162.226562 285.046875 165.433594 285.605469 C 168.636719 286.164062 171.859375 286.59375 175.101562 286.898438 C 175.101562 287.125 174.976562 287.324219 174.976562 287.550781 L 174.976562 350.050781 L 125 350.050781 C 124.179688 350.050781 123.367188 350.128906 122.5625 350.289062 C 121.757812 350.449219 120.976562 350.6875 120.214844 351 C 119.457031 351.316406 118.738281 351.699219 118.054688 352.15625 C 117.371094 352.613281 116.742188 353.128906 116.160156 353.710938 C 115.582031 354.292969 115.0625 354.921875 114.605469 355.605469 C 114.152344 356.289062 113.765625 357.007812 113.453125 357.765625 C 113.136719 358.523438 112.898438 359.304688 112.738281 360.109375 C 112.578125 360.917969 112.5 361.730469 112.5 362.550781 C 112.5 363.371094 112.578125 364.183594 112.738281 364.988281 C 112.898438 365.792969 113.136719 366.574219 113.453125 367.332031 C 113.765625 368.089844 114.152344 368.8125 114.605469 369.496094 C 115.0625 370.175781 115.582031 370.808594 116.160156 371.390625 C 116.742188 371.96875 117.371094 372.488281 118.054688 372.941406 C 118.738281 373.398438 119.457031 373.785156 120.214844 374.097656 C 120.976562 374.414062 121.757812 374.648438 122.5625 374.808594 C 123.367188 374.96875 124.179688 375.050781 125 375.050781 L 250 375.050781 C 250.820312 375.050781 251.632812 374.96875 252.4375 374.808594 C 253.242188 374.648438 254.023438 374.414062 254.785156 374.097656 C 255.542969 373.785156 256.261719 373.398438 256.945312 372.941406 C 257.628906 372.488281 258.257812 371.96875 258.839844 371.390625 C 259.417969 370.808594 259.9375 370.175781 260.394531 369.496094 C 260.847656 368.8125 261.234375 368.089844 261.546875 367.332031 C 261.863281 366.574219 262.101562 365.792969 262.261719 364.988281 C 262.417969 364.183594 262.5 363.371094 262.5 362.550781 C 262.5 361.730469 262.417969 360.917969 262.261719 360.109375 C 262.101562 359.304688 261.863281 358.523438 261.546875 357.765625 C 261.234375 357.007812 260.847656 356.289062 260.394531 355.605469 C 259.9375 354.921875 259.417969 354.292969 258.839844 353.710938 C 258.257812 353.128906 257.628906 352.613281 256.945312 352.15625 C 256.261719 351.699219 255.542969 351.316406 254.785156 351 C 254.023438 350.6875 253.242188 350.449219 252.4375 350.289062 C 251.632812 350.128906 250.820312 350.050781 250 350.050781 L 200 350.050781 L 200 287.5 C 200 287.273438 199.875 287.074219 199.875 286.851562 C 203.113281 286.542969 206.335938 286.113281 209.542969 285.554688 C 212.75 284.996094 215.925781 284.3125 219.078125 283.503906 C 222.230469 282.695312 225.347656 281.761719 228.425781 280.707031 C 231.503906 279.65625 234.535156 278.480469 237.523438 277.191406 C 240.511719 275.898438 243.441406 274.492188 246.316406 272.96875 C 249.191406 271.445312 252.003906 269.8125 254.753906 268.070312 C 257.5 266.324219 260.175781 264.476562 262.777344 262.523438 C 265.378906 260.566406 267.898438 258.515625 270.339844 256.363281 C 272.78125 254.210938 275.132812 251.964844 277.398438 249.628906 C 279.660156 247.289062 281.828125 244.867188 283.902344 242.359375 C 285.976562 239.851562 287.949219 237.265625 289.820312 234.605469 C 291.691406 231.941406 293.453125 229.210938 295.109375 226.40625 C 296.761719 223.605469 298.304688 220.742188 299.738281 217.820312 C 301.167969 214.898438 302.480469 211.925781 303.675781 208.898438 C 304.875 205.871094 305.949219 202.804688 306.90625 199.691406 C 307.859375 196.582031 308.691406 193.4375 309.398438 190.261719 C 309.601562 189.453125 309.722656 188.632812 309.761719 187.804688 C 309.800781 186.972656 309.757812 186.144531 309.632812 185.320312 C 309.503906 184.496094 309.296875 183.695312 309.011719 182.914062 C 308.722656 182.128906 308.363281 181.382812 307.925781 180.675781 C 307.492188 179.964844 306.988281 179.304688 306.421875 178.695312 C 305.851562 178.085938 305.230469 177.539062 304.554688 177.054688 C 303.875 176.570312 303.15625 176.15625 302.398438 175.816406 C 301.636719 175.472656 300.851562 175.210938 300.039062 175.027344 C 299.226562 174.84375 298.40625 174.742188 297.570312 174.722656 C 296.738281 174.703125 295.914062 174.765625 295.09375 174.910156 C 294.273438 175.054688 293.476562 175.28125 292.699219 175.585938 C 291.925781 175.890625 291.1875 176.269531 290.488281 176.722656 C 289.789062 177.175781 289.140625 177.691406 288.546875 178.273438 C 287.949219 178.855469 287.417969 179.488281 286.949219 180.179688 C 286.476562 180.867188 286.082031 181.59375 285.757812 182.363281 C 285.433594 183.128906 285.191406 183.921875 285.023438 184.738281 C 284.402344 187.476562 283.664062 190.179688 282.8125 192.855469 C 281.960938 195.53125 280.996094 198.164062 279.921875 200.757812 C 278.851562 203.351562 277.667969 205.898438 276.382812 208.390625 C 275.09375 210.886719 273.703125 213.320312 272.210938 215.699219 C 270.71875 218.078125 269.128906 220.386719 267.4375 222.632812 C 265.75 224.875 263.972656 227.042969 262.101562 229.136719 C 260.234375 231.230469 258.277344 233.242188 256.238281 235.171875 C 254.199219 237.097656 252.082031 238.9375 249.886719 240.691406 C 247.691406 242.441406 245.429688 244.097656 243.09375 245.65625 C 240.757812 247.214844 238.363281 248.675781 235.90625 250.035156 C 233.449219 251.390625 230.941406 252.644531 228.378906 253.792969 C 225.816406 254.9375 223.210938 255.976562 220.558594 256.902344 C 217.910156 257.828125 215.226562 258.644531 212.507812 259.347656 C 209.789062 260.046875 207.046875 260.632812 204.28125 261.101562 C 201.511719 261.574219 198.730469 261.925781 195.933594 262.164062 C 193.132812 262.398438 190.332031 262.515625 187.523438 262.515625 C 184.71875 262.515625 181.914062 262.398438 179.117188 262.164062 C 176.320312 261.925781 173.539062 261.574219 170.769531 261.101562 C 168.003906 260.632812 165.257812 260.046875 162.542969 259.347656 C 159.824219 258.644531 157.140625 257.828125 154.488281 256.902344 C 151.839844 255.976562 149.234375 254.9375 146.671875 253.792969 C 144.109375 252.644531 141.597656 251.390625 139.140625 250.035156 C 136.6875 248.675781 134.289062 247.214844 131.957031 245.65625 C 129.621094 244.097656 127.359375 242.441406 125.164062 240.691406 C 122.96875 238.9375 120.851562 237.097656 118.8125 235.171875 C 116.773438 233.242188 114.816406 231.230469 112.949219 229.136719 C 111.078125 227.042969 109.296875 224.875 107.609375 222.632812 C 105.921875 220.386719 104.332031 218.078125 102.839844 215.699219 C 101.347656 213.320312 99.957031 210.886719 98.667969 208.390625 C 97.378906 205.898438 96.199219 203.351562 95.125 200.757812 C 94.050781 198.164062 93.089844 195.53125 92.238281 192.855469 C 91.386719 190.179688 90.648438 187.476562 90.023438 184.738281 C 89.84375 183.933594 89.585938 183.15625 89.25 182.402344 C 88.914062 181.648438 88.507812 180.9375 88.03125 180.261719 C 87.554688 179.589844 87.019531 178.972656 86.417969 178.40625 C 85.820312 177.839844 85.171875 177.335938 84.472656 176.898438 C 83.777344 176.460938 83.039062 176.09375 82.269531 175.800781 C 81.5 175.507812 80.707031 175.296875 79.894531 175.160156 C 79.082031 175.023438 78.265625 174.96875 77.441406 174.992188 C 76.617188 175.019531 75.804688 175.125 75 175.3125 Z M 75 175.3125 " fill-opacity="1" fill-rule="nonzero"/><path fill="#757575" d="M 312.5 125 L 312.5 87.5 C 312.5 86.679688 312.417969 85.867188 312.257812 85.0625 C 312.101562 84.257812 311.863281 83.476562 311.546875 82.714844 C 311.234375 81.957031 310.847656 81.238281 310.394531 80.554688 C 309.9375 79.871094 309.417969 79.242188 308.839844 78.660156 C 308.257812 78.082031 307.628906 77.5625 306.945312 77.105469 C 306.261719 76.652344 305.542969 76.265625 304.785156 75.953125 C 304.023438 75.636719 303.242188 75.398438 302.4375 75.238281 C 301.632812 75.078125 300.820312 75 300 75 C 299.179688 75 298.367188 75.078125 297.5625 75.238281 C 296.757812 75.398438 295.976562 75.636719 295.214844 75.953125 C 294.457031 76.265625 293.738281 76.652344 293.054688 77.105469 C 292.371094 77.5625 291.742188 78.082031 291.160156 78.660156 C 290.582031 79.242188 290.0625 79.871094 289.605469 80.554688 C 289.152344 81.238281 288.765625 81.957031 288.453125 82.714844 C 288.136719 83.476562 287.898438 84.257812 287.738281 85.0625 C 287.578125 85.867188 287.5 86.679688 287.5 87.5 L 287.5 125 C 287.5 125.820312 287.578125 126.632812 287.738281 127.4375 C 287.898438 128.242188 288.136719 129.023438 288.453125 129.785156 C 288.765625 130.542969 289.152344 131.261719 289.605469 131.945312 C 290.0625 132.628906 290.582031 133.257812 291.160156 133.839844 C 291.742188 134.417969 292.371094 134.9375 293.054688 135.394531 C 293.738281 135.847656 294.457031 136.234375 295.214844 136.546875 C 295.976562 136.863281 296.757812 137.101562 297.5625 137.261719 C 298.367188 137.417969 299.179688 137.5 300 137.5 C 300.820312 137.5 301.632812 137.417969 302.4375 137.261719 C 303.242188 137.101562 304.023438 136.863281 304.785156 136.546875 C 305.542969 136.234375 306.261719 135.847656 306.945312 135.394531 C 307.628906 134.9375 308.257812 134.417969 308.839844 133.839844 C 309.417969 133.257812 309.9375 132.628906 310.394531 131.945312 C 310.847656 131.261719 311.234375 130.542969 311.546875 129.785156 C 311.863281 129.023438 312.097656 128.242188 312.257812 127.4375 C 312.417969 126.632812 312.5 125.820312 312.5 125 Z M 312.5 125 " fill-opacity="1" fill-rule="nonzero"/><g clip-path="url(#343ada4812)"><path fill="#757575" d="M 362.5 112.5 L 362.5 100 C 362.5 99.179688 362.417969 98.367188 362.257812 97.5625 C 362.101562 96.757812 361.863281 95.976562 361.546875 95.214844 C 361.234375 94.457031 360.847656 93.738281 360.394531 93.054688 C 359.9375 92.371094 359.417969 91.742188 358.839844 91.160156 C 358.257812 90.582031 357.628906 90.0625 356.945312 89.605469 C 356.261719 89.152344 355.542969 88.765625 354.785156 88.453125 C 354.023438 88.136719 353.242188 87.898438 352.4375 87.738281 C 351.632812 87.578125 350.820312 87.5 350 87.5 C 349.179688 87.5 348.367188 87.578125 347.5625 87.738281 C 346.757812 87.898438 345.976562 88.136719 345.214844 88.453125 C 344.457031 88.765625 343.738281 89.152344 343.054688 89.605469 C 342.371094 90.0625 341.742188 90.582031 341.160156 91.160156 C 340.582031 91.742188 340.0625 92.371094 339.605469 93.054688 C 339.152344 93.738281 338.765625 94.457031 338.453125 95.214844 C 338.136719 95.976562 337.898438 96.757812 337.738281 97.5625 C 337.578125 98.367188 337.5 99.179688 337.5 100 L 337.5 112.5 C 337.5 113.320312 337.578125 114.132812 337.738281 114.9375 C 337.898438 115.742188 338.136719 116.523438 338.453125 117.285156 C 338.765625 118.042969 339.152344 118.761719 339.605469 119.445312 C 340.0625 120.128906 340.582031 120.757812 341.160156 121.339844 C 341.742188 121.917969 342.371094 122.4375 343.054688 122.894531 C 343.738281 123.347656 344.457031 123.734375 345.214844 124.046875 C 345.976562 124.363281 346.757812 124.601562 347.5625 124.761719 C 348.367188 124.917969 349.179688 125 350 125 C 350.820312 125 351.632812 124.917969 352.4375 124.761719 C 353.242188 124.601562 354.023438 124.363281 354.785156 124.046875 C 355.542969 123.734375 356.261719 123.347656 356.945312 122.894531 C 357.628906 122.4375 358.257812 121.917969 358.839844 121.339844 C 359.417969 120.757812 359.9375 120.128906 360.394531 119.445312 C 360.847656 118.761719 361.234375 118.042969 361.546875 117.285156 C 361.863281 116.523438 362.101562 115.742188 362.257812 114.9375 C 362.417969 114.132812 362.5 113.320312 362.5 112.5 Z M 362.5 112.5 " fill-opacity="1" fill-rule="nonzero"/></g><path fill="#757575" d="M 75 75 C 74.179688 75 73.367188 75.078125 72.5625 75.238281 C 71.757812 75.398438 70.976562 75.636719 70.214844 75.953125 C 69.457031 76.265625 68.738281 76.652344 68.054688 77.105469 C 67.371094 77.5625 66.742188 78.082031 66.160156 78.660156 C 65.582031 79.242188 65.0625 79.871094 64.605469 80.554688 C 64.152344 81.238281 63.765625 81.957031 63.453125 82.714844 C 63.136719 83.476562 62.898438 84.257812 62.738281 85.0625 C 62.578125 85.867188 62.5 86.679688 62.5 87.5 L 62.5 125 C 62.5 125.820312 62.578125 126.632812 62.738281 127.4375 C 62.898438 128.242188 63.136719 129.023438 63.453125 129.785156 C 63.765625 130.542969 64.152344 131.261719 64.605469 131.945312 C 65.0625 132.628906 65.582031 133.257812 66.160156 133.839844 C 66.742188 134.417969 67.371094 134.9375 68.054688 135.394531 C 68.738281 135.847656 69.457031 136.234375 70.214844 136.546875 C 70.976562 136.863281 71.757812 137.101562 72.5625 137.261719 C 73.367188 137.417969 74.179688 137.5 75 137.5 C 75.820312 137.5 76.632812 137.417969 77.4375 137.261719 C 78.242188 137.101562 79.023438 136.863281 79.785156 136.546875 C 80.542969 136.234375 81.261719 135.847656 81.945312 135.394531 C 82.628906 134.9375 83.257812 134.417969 83.839844 133.839844 C 84.417969 133.257812 84.9375 132.628906 85.394531 131.945312 C 85.847656 131.261719 86.234375 130.542969 86.546875 129.785156 C 86.863281 129.023438 87.101562 128.242188 87.261719 127.4375 C 87.421875 126.632812 87.5 125.820312 87.5 125 L 87.5 87.5 C 87.5 86.679688 87.421875 85.867188 87.261719 85.0625 C 87.101562 84.257812 86.863281 83.476562 86.546875 82.714844 C 86.234375 81.957031 85.847656 81.238281 85.394531 80.554688 C 84.9375 79.871094 84.417969 79.242188 83.839844 78.660156 C 83.257812 78.082031 82.628906 77.5625 81.945312 77.105469 C 81.261719 76.652344 80.542969 76.265625 79.785156 75.953125 C 79.023438 75.636719 78.242188 75.398438 77.4375 75.238281 C 76.632812 75.078125 75.820312 75 75 75 Z M 75 75 " fill-opacity="1" fill-rule="nonzero"/><g clip-path="url(#3e7c07500f)"><path fill="#757575" d="M 25 125 C 25.820312 125 26.632812 124.917969 27.4375 124.761719 C 28.242188 124.601562 29.023438 124.363281 29.785156 124.046875 C 30.542969 123.734375 31.261719 123.347656 31.945312 122.894531 C 32.628906 122.4375 33.257812 121.917969 33.839844 121.339844 C 34.417969 120.757812 34.9375 120.128906 35.394531 119.445312 C 35.847656 118.761719 36.234375 118.042969 36.546875 117.285156 C 36.863281 116.523438 37.101562 115.742188 37.261719 114.9375 C 37.421875 114.132812 37.5 113.320312 37.5 112.5 L 37.5 100 C 37.5 99.179688 37.421875 98.367188 37.261719 97.5625 C 37.101562 96.757812 36.863281 95.976562 36.546875 95.214844 C 36.234375 94.457031 35.847656 93.738281 35.394531 93.054688 C 34.9375 92.371094 34.417969 91.742188 33.839844 91.160156 C 33.257812 90.582031 32.628906 90.0625 31.945312 89.605469 C 31.261719 89.152344 30.542969 88.765625 29.785156 88.453125 C 29.023438 88.136719 28.242188 87.898438 27.4375 87.738281 C 26.632812 87.578125 25.820312 87.5 25 87.5 C 24.179688 87.5 23.367188 87.578125 22.5625 87.738281 C 21.757812 87.898438 20.976562 88.136719 20.214844 88.453125 C 19.457031 88.765625 18.738281 89.152344 18.054688 89.605469 C 17.371094 90.0625 16.742188 90.582031 16.160156 91.160156 C 15.582031 91.742188 15.0625 92.371094 14.605469 93.054688 C 14.152344 93.738281 13.765625 94.457031 13.453125 95.214844 C 13.136719 95.976562 12.898438 96.757812 12.738281 97.5625 C 12.578125 98.367188 12.5 99.179688 12.5 100 L 12.5 112.5 C 12.5 113.320312 12.578125 114.132812 12.738281 114.9375 C 12.898438 115.742188 13.136719 116.523438 13.453125 117.285156 C 13.765625 118.042969 14.152344 118.761719 14.605469 119.445312 C 15.0625 120.128906 15.582031 120.757812 16.160156 121.339844 C 16.742188 121.917969 17.371094 122.4375 18.054688 122.894531 C 18.738281 123.347656 19.457031 123.734375 20.214844 124.046875 C 20.976562 124.363281 21.757812 124.601562 22.5625 124.761719 C 23.367188 124.917969 24.179688 125 25 125 Z M 25 125 " fill-opacity="1" fill-rule="nonzero"/></g></svg>