<svg xmlns="http://www.w3.org/2000/svg" xmlns:xlink="http://www.w3.org/1999/xlink" width="500" zoomAndPan="magnify" viewBox="0 0 375 374.999991" height="500" preserveAspectRatio="xMidYMid meet" version="1.0"><defs><clipPath id="d48cadeb6b"><path d="M 141 123 L 145.390625 123 L 145.390625 130 L 141 130 Z M 141 123 " clip-rule="nonzero"/></clipPath><clipPath id="5a032e6fe5"><path d="M 134 122.507812 L 140 122.507812 L 140 130 L 134 130 Z M 134 122.507812 " clip-rule="nonzero"/></clipPath><clipPath id="13ce17e627"><path d="M 132.640625 124 L 136 124 L 136 128 L 132.640625 128 Z M 132.640625 124 " clip-rule="nonzero"/></clipPath><clipPath id="22854e0c5f"><path d="M 132.640625 126 L 136 126 L 136 128 L 132.640625 128 Z M 132.640625 126 " clip-rule="nonzero"/></clipPath><clipPath id="a32da4997c"><path d="M 138 122.507812 L 140 122.507812 L 140 130.007812 L 138 130.007812 Z M 138 122.507812 " clip-rule="nonzero"/></clipPath><clipPath id="3ada05974f"><path d="M 139 122.507812 L 140 122.507812 L 140 130.007812 L 139 130.007812 Z M 139 122.507812 " clip-rule="nonzero"/></clipPath><clipPath id="77588e62c0"><path d="M 132.640625 125 L 133 125 L 133 128 L 132.640625 128 Z M 132.640625 125 " clip-rule="nonzero"/></clipPath><clipPath id="7bf7388ee4"><path d="M 49.21875 0 L 325.96875 0 L 325.96875 375 L 49.21875 375 Z M 49.21875 0 " clip-rule="nonzero"/></clipPath></defs><g clip-path="url(#d48cadeb6b)"><path fill="#dddde0" d="M 143.332031 123.820312 C 143.734375 124.1875 144.050781 124.699219 144.21875 125.117188 C 144.542969 125.941406 144.605469 126.894531 144.300781 127.75 C 144.101562 128.300781 143.929688 128.589844 143.503906 129.105469 L 144.03125 129.625 C 145.109375 128.621094 145.390625 126.917969 145.148438 125.628906 C 145.101562 125.386719 145.015625 125.085938 144.90625 124.832031 C 144.65625 124.242188 144.371094 123.789062 143.847656 123.273438 Z M 141.15625 125.394531 C 141.832031 126.085938 141.777344 127.171875 141.226562 127.660156 L 141.757812 128.1875 C 142.605469 127.414062 142.648438 125.761719 141.660156 124.84375 Z M 142.242188 124.609375 C 143.296875 125.617188 143.359375 127.214844 142.359375 128.394531 L 142.890625 128.910156 C 143.492188 128.425781 143.84375 127.238281 143.816406 126.457031 C 143.785156 125.65625 143.429688 124.601562 142.742188 124.058594 Z M 142.242188 124.609375 " fill-opacity="1" fill-rule="evenodd"/></g><g clip-path="url(#5a032e6fe5)"><path fill="#fad55c" d="M 138.65625 122.945312 C 138.808594 122.796875 139.078125 122.867188 139.078125 123.0625 L 139.078125 129.457031 C 139.078125 129.652344 138.808594 129.722656 138.65625 129.574219 C 136.902344 127.863281 135.539062 127.410156 134.558594 127.441406 L 134.558594 125.078125 C 135.539062 125.109375 136.902344 124.65625 138.65625 122.945312 Z M 138.65625 122.945312 " fill-opacity="1" fill-rule="evenodd"/></g><path fill="#e3c04d" d="M 139.078125 129.261719 L 139.078125 129.457031 C 139.078125 129.652344 138.808594 129.722656 138.65625 129.574219 C 136.902344 127.863281 135.539062 127.410156 134.558594 127.441406 L 134.558594 126.257812 L 134.558594 127.226562 C 135.539062 127.195312 136.902344 127.652344 138.660156 129.359375 C 138.804688 129.503906 139.0625 129.441406 139.078125 129.261719 Z M 139.078125 129.261719 " fill-opacity="1" fill-rule="evenodd"/><g clip-path="url(#13ce17e627)"><path fill="#ededf0" d="M 133.386719 124.96875 L 135.398438 124.96875 L 135.398438 127.550781 L 133.386719 127.550781 C 133.128906 127.550781 132.914062 127.335938 132.914062 127.074219 L 132.914062 125.445312 C 132.914062 125.183594 133.128906 124.96875 133.386719 124.96875 Z M 133.386719 124.96875 " fill-opacity="1" fill-rule="evenodd"/></g><g clip-path="url(#22854e0c5f)"><path fill="#dddde0" d="M 135.398438 127.324219 L 135.398438 127.550781 L 133.386719 127.550781 C 133.128906 127.550781 132.914062 127.335938 132.914062 127.074219 L 132.914062 126.847656 C 132.914062 127.109375 133.128906 127.324219 133.386719 127.324219 Z M 135.398438 127.324219 " fill-opacity="1" fill-rule="evenodd"/></g><g clip-path="url(#a32da4997c)"><path fill="#ededf0" d="M 139.046875 122.507812 C 139.28125 122.507812 139.476562 122.703125 139.476562 122.941406 L 139.476562 129.574219 C 139.476562 129.8125 139.28125 130.007812 139.046875 130.007812 C 138.8125 130.007812 138.621094 129.8125 138.621094 129.574219 L 138.621094 122.941406 C 138.621094 122.703125 138.8125 122.507812 139.046875 122.507812 Z M 139.046875 122.507812 " fill-opacity="1" fill-rule="evenodd"/></g><g clip-path="url(#3ada05974f)"><path fill="#dddde0" d="M 139.046875 122.507812 C 139.28125 122.507812 139.476562 122.703125 139.476562 122.941406 L 139.476562 129.574219 C 139.476562 129.8125 139.28125 130.007812 139.046875 130.007812 Z M 139.046875 122.507812 " fill-opacity="1" fill-rule="evenodd"/></g><path fill="#fad55c" d="M 139.476562 124.964844 C 140.179688 124.964844 140.75 125.542969 140.75 126.257812 C 140.75 126.972656 140.179688 127.554688 139.476562 127.554688 Z M 139.476562 124.964844 " fill-opacity="1" fill-rule="evenodd"/><g clip-path="url(#77588e62c0)"><path fill="#fad55c" d="M 132.921875 127.160156 C 132.769531 127.15625 132.644531 127.027344 132.644531 126.871094 L 132.644531 125.648438 C 132.644531 125.492188 132.769531 125.363281 132.921875 125.359375 C 132.917969 125.386719 132.914062 125.414062 132.914062 125.445312 L 132.914062 127.074219 C 132.914062 127.101562 132.917969 127.132812 132.921875 127.160156 Z M 132.921875 127.160156 " fill-opacity="1" fill-rule="evenodd"/></g><g clip-path="url(#7bf7388ee4)"><path fill="#757575" d="M 69.628906 118.6875 C 69.628906 124.253906 65.117188 128.765625 59.550781 128.765625 C 53.984375 128.765625 49.472656 124.253906 49.472656 118.6875 L 49.472656 70.144531 C 49.472656 50.859375 57.359375 33.320312 70.054688 20.625 C 82.757812 7.921875 100.285156 0.0351562 119.582031 0.0351562 L 255.453125 0.0351562 C 274.746094 0.0351562 292.273438 7.921875 304.980469 20.625 C 317.675781 33.320312 325.5625 50.859375 325.5625 70.144531 L 325.5625 304.890625 C 325.5625 324.171875 317.675781 341.710938 304.980469 354.40625 C 292.273438 367.113281 274.746094 375 255.453125 375 L 119.582031 375 C 100.285156 375 82.757812 367.113281 70.054688 354.40625 C 57.359375 341.710938 49.472656 324.171875 49.472656 304.890625 L 49.472656 256.347656 C 49.472656 250.78125 53.984375 246.269531 59.550781 246.269531 C 65.117188 246.269531 69.628906 250.78125 69.628906 256.347656 L 69.628906 304.890625 C 69.628906 318.617188 75.253906 331.105469 84.308594 340.164062 C 93.367188 349.21875 105.855469 354.84375 119.582031 354.84375 L 255.453125 354.84375 C 269.179688 354.84375 281.667969 349.21875 290.726562 340.164062 C 299.78125 331.105469 305.40625 318.617188 305.40625 304.890625 L 305.40625 70.144531 C 305.40625 56.417969 299.78125 43.929688 290.726562 34.871094 C 281.667969 25.816406 269.179688 20.191406 255.453125 20.191406 L 119.582031 20.191406 C 105.855469 20.191406 93.367188 25.816406 84.308594 34.871094 C 75.253906 43.929688 69.628906 56.417969 69.628906 70.144531 Z M 218.25 179.71875 C 220.511719 181.566406 221.957031 184.378906 221.957031 187.523438 C 221.957031 190.667969 220.511719 193.480469 218.25 195.328125 L 148.277344 261.078125 C 144.238281 264.875 137.878906 264.691406 134.066406 260.640625 C 130.269531 256.601562 130.464844 250.242188 134.503906 246.441406 L 186.476562 197.601562 L 60.019531 197.601562 C 54.453125 197.601562 49.941406 193.089844 49.941406 187.523438 C 49.941406 181.957031 54.453125 177.445312 60.019531 177.445312 L 186.476562 177.445312 L 134.503906 128.605469 C 130.464844 124.804688 130.269531 118.445312 134.066406 114.40625 C 137.867188 110.363281 144.226562 110.167969 148.277344 113.96875 Z M 218.25 179.71875 " fill-opacity="1" fill-rule="nonzero"/></g></svg>